<?xml version="1.0" encoding="iso-8859-1"?>
<!-- Generator: Adobe Illustrator 19.0.0, SVG Export Plug-In . SVG Version: 6.00 Build 0)  -->
<svg version="1.1" id="Layer_1" xmlns="http://www.w3.org/2000/svg" xmlns:xlink="http://www.w3.org/1999/xlink" x="0px" y="0px" fill="#1A3263"
	 viewBox="0 0 512 512" style="enable-background:new 0 0 512 512;" xml:space="preserve">
<g>
	<g>
		<g>
			<path fill="#1A3263" d="M316.708,410.833l6.648,14.3c22.949-10.668,43.322-26.896,58.922-46.931l-12.443-9.688
				C355.767,386.582,337.396,401.216,316.708,410.833z"/>
			<path d="M377.424,357.801l13.27,8.519c5.548-8.641,10.276-17.85,14.052-27.373l-14.659-5.813
				C386.684,341.713,382.423,350.012,377.424,357.801z"/>
			<polygon points="248.115,31.896 263.885,31.896 263.885,15.77 280.011,15.77 280.011,0 231.989,0 231.989,15.77 248.115,15.77 
							"/>
			<polygon points="63.578,98.74 74.98,110.143 86.132,98.993 74.729,87.59 86.132,76.187 74.98,65.035 41.024,98.992 
				52.175,110.144 			"/>
			<polygon points="438.628,110.144 450.031,98.74 461.434,110.144 472.586,98.992 438.628,65.035 427.477,76.187 438.88,87.59 
				427.477,98.992 			"/>
			<path d="M383.941,160.074h-0.001H128.06v87.804h255.881V160.074z M368.171,232.107h-0.001H143.83v-56.264h224.341V232.107z"/>
			<path d="M239.874,184.086h-39.78v39.781h39.78V184.086z M224.104,208.097h-8.24v-8.241h8.24V208.097z"/>
			<path d="M191.852,184.086H152.07v39.781h39.781V184.086z M176.082,208.097h-8.241v-8.241h8.241V208.097z"/>
			<path d="M359.93,184.086h-39.781v39.781h39.781V184.086z M344.16,208.097h-8.241v-8.241h8.241V208.097z"/>
			<path d="M311.907,184.086h-39.78v39.781h39.78V184.086z M296.137,208.097h-8.24v-8.241h8.24V208.097z"/>
			<rect x="247.999" y="184.089" width="16.008" height="15.77"/>
			<rect x="247.999" y="208.101" width="16.008" height="15.77"/>
			<rect x="247.999" y="272.128" width="16.008" height="15.77"/>
			<path d="M426.288,122.484l6.681-6.681l-11.15-11.149l-6.622,6.622c-41.313-39.034-94.543-61.222-151.311-63.106v-8.27h-15.77
				v8.27C191.728,50.04,138.833,71.95,97.638,110.498l-5.846-5.847L80.64,115.8l5.848,5.848
				c-40.342,43.111-62.477,99.032-62.477,158.362c0,61.966,24.131,120.224,67.948,164.041C135.776,487.869,194.033,512,256,512
				s120.224-24.131,164.041-67.948c43.818-43.818,67.948-102.075,67.948-164.041C487.989,221.063,466.137,165.48,426.288,122.484z
				 M256,496.23c-119.223,0-216.219-96.995-216.219-216.219S136.777,63.793,256,63.793s216.219,96.995,216.219,216.219
				S375.223,496.23,256,496.23z"/>
			<path d="M256,80.037c-110.266,0-199.974,89.708-199.974,199.974S145.734,479.986,256,479.986s199.974-89.708,199.974-199.974
				S366.266,80.037,256,80.037z M263.885,464.036v-23.95h-15.77v23.95c-95.31-4.035-172.104-80.829-176.138-176.14h23.949v-15.77
				H71.976c4.035-95.311,80.829-172.104,176.138-176.14v23.95h15.77v-23.95c95.31,4.035,172.104,80.829,176.139,176.14h-23.949
				v15.77h23.949C435.989,383.207,359.195,460.001,263.885,464.036z"/>
			<rect x="248.115" y="296.014" width="15.77" height="128.063"/>
		</g>
	</g>
</g>
<g>
</g>
<g>
</g>
<g>
</g>
<g>
</g>
<g>
</g>
<g>
</g>
<g>
</g>
<g>
</g>
<g>
</g>
<g>
</g>
<g>
</g>
<g>
</g>
<g>
</g>
<g>
</g>
<g>
</g>
</svg>
